PathFileType	4	(X/Y/Z)	Patient4_TMGait_0pt5_02_left_12.trc.trc
DataRate	CameraRate	NumFrames	NumMarkers	Units	OrigDataRate	OrigDataStartFrame	OrigNumFrames
78.212290502793	78.212290502793	5	33	mm	78.212290502793	106	       141
Frame#	Time	Sacral			L.Shoulder			Chest			R.Shoulder			Neck			R.ASIS			L.ASIS			R.Thigh.Superior			R.Thigh.Lateral			R.Thigh.Inferior			R.Patella			L.Thigh.Superior			L.Thigh.Lateral			L.Thigh.Inferior			L.Patella			L.Shank.Superior			L.Shank.Lateral			L.Shank.Inferior			R.Shank.Superior			R.Shank.Lateral			R.Shank.Inferior			R.Heel			R.Midfoot.Superior			R.Midfoot.Lateral			R.Toe			L.Heel			L.Midfoot.Lateral			L.Midfoot.Superior			L.Toe			L.Elbow			L.Wrist			R.Elbow			R.Wrist			
		X1	Y1	Z1	X2	Y2	Z2	X3	Y3	Z3	X4	Y4	Z4	X5	Y5	Z5	X6	Y6	Z6	X7	Y7	Z7	X8	Y8	Z8	X9	Y9	Z9	X10	Y10	Z10	X11	Y11	Z11	X12	Y12	Z12	X13	Y13	Z13	X14	Y14	Z14	X15	Y15	Z15	X16	Y16	Z16	X17	Y17	Z17	X18	Y18	Z18	X19	Y19	Z19	X20	Y20	Z20	X21	Y21	Z21	X22	Y22	Z22	X23	Y23	Z23	X24	Y24	Z24	X25	Y25	Z25	X26	Y26	Z26	X27	Y27	Z27	X28	Y28	Z28	X29	Y29	Z29	X30	Y30	Z30	X31	Y31	Z31	X32	Y32	Z32	X33	Y33	Z33	

106	16.392500000000	550.062694370201	1015.454932720593	530.877559378899	724.005312723551	1446.943315346850	358.981728948286	836.169689675662	1365.092622339306	507.891306077616	768.891494926473	1431.098323746018	692.112390951438	735.503186014063	1499.997592546325	513.582927987133	781.001858118681	942.200171961602	634.671293440012	752.867684180385	967.581394710180	362.175705917116	809.144214589073	739.412112146281	608.653514667110	721.229136403589	636.481782492333	666.890343381909	795.086984101082	580.114314129079	586.725762397524	790.400866382216	494.708926202118	591.895003657042	833.365755271029	783.829841487100	384.029972045839	783.190805144669	657.942814121984	307.896836078925	888.472956572641	594.956627534974	361.973825250029	903.908163141328	509.155468491624	355.269592052207	849.644945019655	436.829199812098	349.959987568442	719.665135596059	367.977033764980	301.980071776091	733.106060621215	239.651407313737	357.940555596572	763.873743934972	407.088327961390	598.536041369390	691.346235624629	302.159653969145	655.837983506590	738.115613345090	208.804535489566	593.621967913452	606.092855181955	42.868517481514	555.702167904863	776.964808833583	97.499206252446	596.252847691780	688.133670266378	36.047574054963	632.182490117889	896.273881250552	44.512075907711	625.119522514354	559.462044853101	134.722870940562	396.722939484106	624.050027275462	108.593968546657	313.465847564949	724.935367546300	138.188555159776	334.537857019263	824.502939783689	48.847245101764	299.245565495548	658.267666364506	1097.667504773690	240.955736845766	704.561931802670	841.250882656352	227.344053180004	834.239353955673	1086.067941197450	796.920585545795	1044.436988663890	935.318085504411	766.861670626585	
107	16.405285714286	549.768448247288	1015.899005629407	532.162064166962	723.107645367921	1446.875717756959	359.145722117439	836.237780764919	1365.110379040636	507.304129604845	770.448088406701	1431.516347200054	691.869657785735	735.722935115081	1500.093349350790	513.537697601677	780.863357980126	942.091589356173	634.700503030923	751.625505197936	967.945182512585	362.341619187799	806.671732094979	738.797463479893	607.746102769061	718.347650944592	636.496192361012	667.052853773124	790.837933161649	579.456309576079	586.419774325636	785.404190268380	494.307141480927	591.779955713377	832.977162474109	785.265908106401	384.197945262219	783.644759194653	659.138711308194	307.824489819931	888.843939914183	596.752474541299	362.447448057700	905.893563130597	512.574030519301	355.621763972578	855.257054643638	439.156023153507	349.587826733708	729.881999588986	363.308620739650	300.432628649133	750.571600776206	235.528279988432	355.942998545972	758.684686889958	406.814772786015	598.406524752701	685.962764011921	302.138952592000	655.847901335756	732.213015735401	208.638588239532	593.494216823112	599.651178923140	42.876730147873	555.695392551550	770.511201645411	97.420031353041	596.227282298551	681.686588995325	36.064092297736	632.200570953162	889.832560634763	44.364881662858	625.189444655470	583.428004680858	120.271857078067	393.373825473956	649.758811060765	98.580090497294	310.295931782562	748.548369617586	133.951416498914	332.037445640822	853.352762189500	51.079293891521	296.778091891648	651.070050955888	1098.380440420721	242.896107704518	687.428731613170	840.463970579018	230.616760965517	844.646216701439	1089.271012771192	797.002761393251	1063.511892900739	952.605374882625	763.174666555520	
108	16.418071428571	549.502515073409	1016.213539737780	533.252907267989	722.283241093412	1446.711595738117	359.197554170864	836.347880943541	1364.952178130893	506.583891210972	772.033935984351	1431.725388937905	691.484654093494	736.004847714740	1500.033654037930	513.398315200144	780.740088769624	941.892764599394	634.556989719599	750.421143787646	968.086883394176	362.319912001300	804.331476991747	738.142886620820	606.723167504767	715.649203233217	636.427078793875	667.122407788127	786.782534951887	578.772236956643	586.020985563782	780.624725924664	493.844448044630	591.576828974824	832.227035376088	786.123830839883	384.402514082184	783.598952902334	659.883813063567	307.697292824680	888.382780032171	597.839371627181	363.188725455982	906.983735264295	515.492478417324	356.218320018753	860.159755272177	441.267252412505	349.370239622060	740.108354360791	358.384466569066	298.865723070396	768.239485989303	231.651047527683	354.086415212397	753.668377885472	406.465074056304	598.188943494995	680.759022720131	302.068809729962	655.833179236739	726.385198013386	208.405195346137	593.300867024381	593.212404566847	42.877569605896	555.679672302533	764.057647792919	97.330012952124	596.176702389025	675.240601807769	36.077961538394	632.212822209512	883.392581658279	44.200441306740	625.247679671494	608.450285774292	106.117127443132	389.983837350652	676.471846224496	89.022074534950	307.246089215311	772.699253711847	130.250555040031	329.797992399446	882.578730735970	54.267606735041	294.898798507554	643.928735864306	1099.173367774474	244.700821350125	670.969038677148	840.183117261644	233.908372446922	854.793780216659	1092.545430793101	796.815496579220	1081.373413555236	970.456643318065	759.312364354388	
109	16.430857142857	549.265685775633	1016.395990927765	534.143449864771	721.551716265498	1446.458485789935	359.125867980381	836.497424180006	1364.628560755842	505.737744924597	773.619657441310	1431.739189723160	690.955747610080	736.350878021934	1499.827036462691	513.153352575640	780.640686743722	941.618146401749	634.263712731923	749.267270711261	967.998556825519	362.118374874725	802.167515292524	737.456747630695	605.664875184624	713.150560818986	636.271453032944	667.106496961932	782.977694505471	578.064814934979	585.556740667966	776.116187723348	493.314221207232	591.291752168579	831.108121419127	786.397283185654	384.640938414601	783.070342053874	660.197114874399	307.481360300543	887.151137595257	598.249413860384	364.122323465462	907.240332147998	517.910289216437	356.995793758658	864.351958586731	443.197695990312	349.280122741731	750.289288884669	353.392596436762	297.308655615649	785.909263081273	228.248453333579	352.439722234300	748.867612257405	406.036202851760	597.890907262564	675.757632076203	301.953439572934	655.797300556358	720.645133309123	208.104646118620	593.047688665186	586.774376229021	42.872915697120	555.663795614666	757.604662003946	97.230668863214	596.104452114480	668.795524807551	36.088574605680	632.222382315288	876.955573010644	44.017567800818	625.295599743581	634.239934981672	92.728266994656	386.707825569744	703.872285160139	80.271993950045	304.473181670625	797.088526825731	127.325078551065	327.926588620389	911.762287560627	58.536182999048	293.752838985219	636.853956270907	1100.059294518511	246.361520965936	655.259178937050	840.361048434065	237.184331509940	864.713358371294	1095.877921049871	796.332399174263	1097.972291529918	988.666979861117	755.303350324381	
110	16.443642857143	549.061734430955	1016.449793342919	534.834805845077	720.928452419177	1446.126129796477	358.917721270792	836.683076340427	1364.159480375419	504.772200710534	775.177641305090	1431.585094277993	690.279068589291	736.758013405690	1499.489770306053	512.788498713144	780.577913107006	941.281312082078	633.840766498701	748.174534693641	967.687346557431	361.746247337081	800.213247126861	736.745918616010	604.630989542939	710.866936313583	636.030431562538	667.006815757429	779.467565414203	577.336640663536	585.042104418009	771.920195653164	492.711528281861	590.924249355629	829.629759340001	786.108738836097	384.894811828584	782.089749224323	660.114659220560	307.146421893112	885.243692749745	598.045599383093	365.153253414432	906.748253606321	519.846420604458	357.882586813651	867.850380035293	444.979246911926	349.283707200608	760.335611026321	348.502590221765	295.804416879721	803.355118160229	225.495622482305	351.059568127120	744.316032242040	405.526681012145	597.516178397465	670.971346302102	301.798917743344	655.736772436737	715.001750501301	207.740436953062	592.739881654954	580.335787284846	42.864181785789	555.655343002007	751.151479465972	97.124117707343	596.013124361023	662.350946715794	36.095697383660	632.231720347373	870.522277491795	43.819312447430	625.334292242269	660.429863701443	80.501037830058	383.710021851921	731.569013196978	72.592152054765	302.126798255264	821.380618641564	125.329641449772	326.502786996106	940.471188536708	63.897512403028	293.428371566554	629.864961155104	1101.047871183444	247.871155475525	640.357572918854	840.944921368544	240.404120002334	874.420949690789	1099.267402916203	795.535717741451	1113.275588095303	1007.031330130040	751.175112264540	
